<svg xmlns="http://www.w3.org/2000/svg" xmlns:xlink="http://www.w3.org/1999/xlink" width="100" height="100" viewBox="0 0 100 100">
  <defs>
    <clipPath id="a">
      <path d="M64.214,26.211c-1.579-4.712-7.4-6.013-12.123-3.671-4.265,2.112-6.655,9.259-8.008,11.273-1.156,1.722-8.238,3.567-13.885,7.849C18.263,50.71,15.315,59.348,12.285,63.24S.514,75.391,2.207,77.062s9.513-5.709,12.731-10.253c-1.285,2.39-4.748,6.268-3.854,7.168,2.746,2.767,6.789-5.4,10.184-8.106,6.079,1.5,20.523,3.158,30.077-6.532,5.567-5.647,7.064-13.966,7.632-18.165C59.733,35.579,66.1,31.851,64.214,26.211Z" fill="#bed1f8"/>
    </clipPath>
  </defs>
  <g>
    <rect width="100" height="100" fill="none"/>
    <g>
      <g>
        <polygon points="61.788 31.912 59.564 23.025 69.563 25.244 61.788 31.912" fill="#031e55"/>
        <g>
          <path d="M35.825,62.128A11.636,11.636,0,0,0,42.8,70.621" fill="none" stroke="#031e55" stroke-linecap="round" stroke-linejoin="round"/>
          <path d="M33.563,64.892a11.636,11.636,0,0,0,6.971,8.493" fill="none" stroke="#031e55" stroke-linecap="round" stroke-linejoin="round"/>
        </g>
        <g>
          <path d="M64.214,26.211c-1.579-4.712-7.4-6.013-12.123-3.671-4.265,2.112-6.655,9.259-8.008,11.273-1.156,1.722-8.238,3.567-13.885,7.849C18.263,50.71,15.315,59.348,12.285,63.24S.514,75.391,2.207,77.062s9.513-5.709,12.731-10.253c-1.285,2.39-4.748,6.268-3.854,7.168,2.746,2.767,6.789-5.4,10.184-8.106,6.079,1.5,20.523,3.158,30.077-6.532,5.567-5.647,7.064-13.966,7.632-18.165C59.733,35.579,66.1,31.851,64.214,26.211Z" fill="#bed1f8"/>
          <g clip-path="url(#a)">
            <path d="M37.539,54.813A22.11,22.11,0,0,1,14.5,58c-1.115-.512-2.3-1.274-2.514-2.482-.207-1.178.6-2.273,1.374-3.182A80.358,80.358,0,0,1,40.5,31.72c1.007-.468,3.356,1.289,3.583,2.093C46.626,42.8,41.5,51.44,37.539,54.813Z" fill="#031e55"/>
          </g>
        </g>
        <circle cx="58.519" cy="27.468" r="2.395" fill="#91b0f2"/>
        <path d="M46.626,39.513A27.7,27.7,0,0,1,36.579,53.955c-4.8,3.55-13.1,6.828-20.356,3.45" fill="none"/>
      </g>
      <g>
        <circle cx="69.01" cy="59.293" r="21" fill="#ff870a"/>
        <g>
          <path d="M76.035,51.46l-7.429,7.429-7.429,7.429a.571.571,0,0,0,.808.808L69.414,59.7l7.429-7.428A.572.572,0,0,0,76.035,51.46Z" fill="#fff" stroke="#fff" stroke-miterlimit="10" fill-rule="evenodd"/>
          <path d="M77.01,64.436a2.857,2.857,0,1,1-2.857-2.857A2.857,2.857,0,0,1,77.01,64.436Zm-4.571,0a1.714,1.714,0,1,0,1.714-1.714A1.714,1.714,0,0,0,72.439,64.436Z" fill="#fff" stroke="#fff" stroke-miterlimit="10" fill-rule="evenodd"/>
          <path d="M66.724,54.15a2.857,2.857,0,1,1-2.857-2.857A2.857,2.857,0,0,1,66.724,54.15Zm-4.571,0a1.714,1.714,0,1,0,1.714-1.714A1.714,1.714,0,0,0,62.153,54.15Z" fill="#fff" stroke="#fff" stroke-miterlimit="10" fill-rule="evenodd"/>
        </g>
      </g>
    </g>
  </g>
</svg>
