<svg xmlns="http://www.w3.org/2000/svg" xmlns:xlink="http://www.w3.org/1999/xlink" width="100" height="100" viewBox="0 0 100 100">
  <defs>
    <clipPath id="a">
      <circle cx="44.01" cy="47.38" r="19.539" fill="#fff"/>
    </clipPath>
  </defs>
  <g>
    <rect width="100" height="100" fill="none"/>
    <g>
      <g>
        <circle cx="29.534" cy="26.969" r="6.213" fill="#031e55"/>
        <circle cx="58.297" cy="26.969" r="6.213" fill="#031e55"/>
        <circle cx="44.01" cy="47.38" r="25" fill="#dee8fb"/>
        <g>
          <circle cx="44.01" cy="47.38" r="19.539" fill="#fff"/>
          <g clip-path="url(#a)">
            <polygon points="44.01 27.841 44.01 47.38 60.38 33.255 55.595 27.841 44.482 25.619 44.01 27.841" fill="#91b0f2"/>
          </g>
        </g>
        <line x1="44.01" y1="27.707" x2="44.01" y2="32.991" fill="none" stroke="#031e55" stroke-linecap="round" stroke-linejoin="round"/>
        <line x1="44.01" y1="61.769" x2="44.01" y2="67.053" fill="none" stroke="#031e55" stroke-linecap="round" stroke-linejoin="round"/>
        <line x1="63.683" y1="47.38" x2="58.399" y2="47.38" fill="none" stroke="#031e55" stroke-linecap="round" stroke-linejoin="round"/>
        <line x1="29.621" y1="47.38" x2="24.337" y2="47.38" fill="none" stroke="#031e55" stroke-linecap="round" stroke-linejoin="round"/>
        <line x1="43.792" y1="48.055" x2="54.666" y2="36.829" fill="none"/>
        <line x1="38.381" y1="42.643" x2="43.794" y2="48.052" fill="none"/>
      </g>
      <g>
        <circle cx="69.01" cy="64.411" r="21" fill="#ff870a"/>
        <g>
          <path d="M76.035,56.578l-7.429,7.429-7.429,7.429a.571.571,0,0,0,.808.808l7.429-7.429,7.429-7.429A.571.571,0,0,0,76.035,56.578Z" fill="#fff" stroke="#fff" stroke-miterlimit="10" fill-rule="evenodd"/>
          <path d="M77.01,69.554A2.857,2.857,0,1,1,74.153,66.7,2.857,2.857,0,0,1,77.01,69.554Zm-4.571,0a1.714,1.714,0,1,0,1.714-1.714A1.714,1.714,0,0,0,72.439,69.554Z" fill="#fff" stroke="#fff" stroke-miterlimit="10" fill-rule="evenodd"/>
          <path d="M66.724,59.268a2.857,2.857,0,1,1-2.857-2.857A2.857,2.857,0,0,1,66.724,59.268Zm-4.571,0a1.714,1.714,0,1,0,1.714-1.714A1.714,1.714,0,0,0,62.153,59.268Z" fill="#fff" stroke="#fff" stroke-miterlimit="10" fill-rule="evenodd"/>
        </g>
      </g>
    </g>
  </g>
</svg>
