<svg xmlns="http://www.w3.org/2000/svg" xmlns:xlink="http://www.w3.org/1999/xlink" width="100" height="100" viewBox="0 0 100 100">
  <defs>
    <clipPath id="a">
      <path d="M19.431,56.9a2.862,2.862,0,0,1-.7-3.986l19.351-27.63a2.864,2.864,0,0,1,2.174-1.215l16.652-.989a2.808,2.808,0,0,1,2.844,1.991l4.762,15.987a2.861,2.861,0,0,1-.4,2.459L44.762,71.145a2.861,2.861,0,0,1-3.985.7Z" fill="#dee8fb"/>
    </clipPath>
  </defs>
  <g>
    <rect width="100" height="100" fill="none"/>
    <g>
      <g>
        <g>
          <path d="M19.431,56.9a2.862,2.862,0,0,1-.7-3.986l19.351-27.63a2.864,2.864,0,0,1,2.174-1.215l16.652-.989a2.808,2.808,0,0,1,2.844,1.991l4.762,15.987a2.861,2.861,0,0,1-.4,2.459L44.762,71.145a2.861,2.861,0,0,1-3.985.7Z" fill="#dee8fb"/>
          <g clip-path="url(#a)">
            <path d="M80.524,10.768a34.117,34.117,0,1,1-68.233,0c13.324-3.953,14.25-5.574,33.092-5.574S69.01,5.842,80.524,10.768Z" fill="#91b0f2"/>
          </g>
        </g>
        <circle cx="53.338" cy="31.197" r="2.526" fill="#fff"/>
        <path d="M55.353,30.246C50.519,28,58.89,20.368,68.676,20.586c7.519.168,10.218,11.2,1.711,8.406-6.428-2.115-9.653-.617-9.653-.617" fill="none" stroke="#031e55" stroke-linecap="round" stroke-linejoin="round"/>
      </g>
      <g>
        <circle cx="69.01" cy="67.19" r="21" fill="#ff870a"/>
        <g>
          <path d="M76.035,59.357l-7.429,7.429-7.429,7.428a.571.571,0,0,0,.808.808l7.429-7.428,7.429-7.429A.571.571,0,0,0,76.035,59.357Z" fill="#fff" stroke="#fff" stroke-miterlimit="10" fill-rule="evenodd"/>
          <path d="M77.01,72.333a2.857,2.857,0,1,1-2.857-2.857A2.857,2.857,0,0,1,77.01,72.333Zm-4.571,0a1.714,1.714,0,1,0,1.714-1.715A1.714,1.714,0,0,0,72.439,72.333Z" fill="#fff" stroke="#fff" stroke-miterlimit="10" fill-rule="evenodd"/>
          <path d="M66.724,62.047a2.857,2.857,0,1,1-2.857-2.857A2.857,2.857,0,0,1,66.724,62.047Zm-4.571,0a1.714,1.714,0,1,0,1.714-1.714A1.714,1.714,0,0,0,62.153,62.047Z" fill="#fff" stroke="#fff" stroke-miterlimit="10" fill-rule="evenodd"/>
        </g>
      </g>
    </g>
  </g>
</svg>
