<svg xmlns="http://www.w3.org/2000/svg" width="100" height="100">
  <path
    d="M38.968 35.967c2.261-1.145 8.97-17.766 11.1-18.693.319-.138 1.101-.072 1.181.304.609 3.007-6.361 13.592-4.347 14.491s8.05-14.831 10.39-14.795c.413 0 .87.312.906.572.427 2.956-8.26 15.505-6.376 16.454 2.405 1.203 6.992-11.846 9.151-12.143a.95.95 0 0 1 1.072.725c.406 2.058-3.688 8.615-6.035 12.462-.304.514-.551 1.304 0 1.587a1.08 1.08 0 0 0 1.08-.268c2.637-1.971 4.833-6.869 6.405-7.724 1.275-.667 2.014.254 1.355 1.522-3.297 6.311-5.999 13.433-11.991 21.367-2.63 3.492-6.376 4.275-10.144 11.593-2.63 5.072-2.427 5.63-10.187 3.173-1.485-.5-7.34-2.746-6.557-3.934 3.376-5.072 9.636-10.998 7.753-16.875-1.848-5.724.225-15.215.362-21.28 0-.565.724-.594 1.138-.551 2.71.319-.239 14.02 3.746 12.013z"
    fill="#bed1f8" />
  <path
    d="M43.46 47.944c.09-.002.176-.037.242-.098s.106-.145.113-.235c0-.167.348-4.036-.145-6.072-.985-4.094-4.934-5.666-5.072-5.731-.045-.017-.092-.025-.14-.024s-.095.012-.139.031-.083.048-.116.082-.059.076-.076.12-.025.092-.024.14.012.095.031.139.047.083.082.116.076.059.12.076c0 0 3.76 1.507 4.659 5.217.464 1.927.13 5.796.13 5.84-.005.047 0 .095.013.14s.037.088.067.124.068.067.11.088.088.035.136.038l.007.007z"
    fill="#91b0f2" />
  <path
    d="M29.593 55.385c1.782-.848 13.766 5.941 14.759 7.412s-3.623 14.331-6.238 15.353c-4.304 1.695-22.388-6.441-19.563-10.701 3.623-5.528 9.528-11.354 11.042-12.064z"
    fill="#031e55" />
  <path
    d="M38.475 68.093c-1.337 0-2.42-1.07-2.42-2.391s1.083-2.391 2.42-2.391 2.42 1.07 2.42 2.391-1.083 2.391-2.42 2.391z"
    fill="#ff870a" />
  <path
    d="M28.202 26.896c.041.009.083.009.123 0 .045-.016.086-.041.12-.073s.063-.071.082-.114a.38.38 0 0 0 .032-.137.35.35 0 0 0-.024-.139 9.95 9.95 0 0 1 1.782-9.847c.035-.033.062-.072.081-.115a.35.35 0 0 0 0-.276c-.019-.044-.047-.083-.081-.115a.37.37 0 0 0-.514 0 10.68 10.68 0 0 0-1.927 10.513c.013.08.052.153.111.208s.135.089.215.096zm-2.087 1.253c.038.007.078.007.116 0a.37.37 0 0 0 .232-.456c-.757-2.339-1.122-4.787-1.079-7.245.001-.048-.008-.095-.025-.139a.36.36 0 0 0-.076-.119c-.033-.034-.072-.062-.116-.081a.36.36 0 0 0-.138-.03c-.048-.003-.096.004-.142.02a.32.32 0 0 0-.121.076.35.35 0 0 0-.107.259c-.044 2.546.333 5.083 1.116 7.506.028.066.076.121.137.159s.132.055.203.051h0z"
    fill="#031e55" />
  <path
    d="M66.19 46.762c11.493 0 20.81 9.317 20.81 20.81s-9.317 20.81-20.81 20.81-20.81-9.317-20.81-20.81 9.317-20.81 20.81-20.81z"
    fill="#ff870a" />
  <path
    d="M75.528 59.196l-.963-.963-17.713 17.713.963.963 17.713-17.713zM57.816 76.909l17.713-17.713c.642-.642-.321-1.605-.963-.963L56.853 75.946c-.642.642.321 1.605.963.963zm16.55-3.206c0 .268-.053.534-.156.782s-.253.473-.443.663-.415.34-.663.443-.514.156-.782.156-.534-.053-.782-.156-.473-.253-.663-.443-.34-.415-.443-.663-.156-.514-.156-.782c0-.542.215-1.062.599-1.445s.903-.599 1.445-.599 1.062.215 1.445.599.599.903.599 1.445h0zm1.363 0c0-.903-.359-1.77-.998-2.409s-1.505-.998-2.409-.998-1.77.359-2.409.998-.998 1.505-.998 2.409.359 1.77.998 2.409 1.505.998 2.409.998 1.77-.359 2.409-.998.998-1.505.998-2.409zM62.103 61.44c0 .268-.053.534-.156.782s-.253.473-.443.663-.415.34-.663.443-.514.156-.782.156-.534-.053-.782-.156-.473-.253-.663-.443-.34-.415-.443-.663-.156-.514-.156-.782c0-.542.215-1.062.599-1.445s.903-.599 1.445-.599 1.062.215 1.445.599.599.903.599 1.445h0zm1.363 0c0-.903-.359-1.77-.998-2.409s-1.505-.998-2.409-.998-1.77.359-2.409.998-.998 1.505-.998 2.409.359 1.77.998 2.409 1.505.998 2.409.998 1.77-.359 2.409-.998.998-1.505.998-2.409z"
    stroke="#fff" stroke-width=".3" fill="#fff" />
</svg>