<svg xmlns="http://www.w3.org/2000/svg" width="100" height="100" viewBox="0 0 100 100">
  <g>
    <rect width="100" height="100" fill="none"/>
    <g>
      <g>
        <path d="M57.892,38.075c0,10.05-15.447,38.861-18.2,38.861S21.5,48.125,21.5,38.075a18.2,18.2,0,1,1,36.4,0Z" fill="#bed1f8"/>
        <circle cx="39.586" cy="37.897" r="12.945" fill="#fff"/>
        <circle cx="39.586" cy="37.897" r="7.029" fill="#031e55"/>
      </g>
      <g>
        <circle cx="66.175" cy="64.793" r="21" fill="#ff870a"/>
        <g>
          <path d="M61.948,64.793a4.227,4.227,0,1,0,4.227-4.227A4.231,4.231,0,0,0,61.948,64.793Zm1.691,0a2.537,2.537,0,1,1,2.536,2.536A2.539,2.539,0,0,1,63.639,64.793Z" fill="#fff" fill-rule="evenodd"/>
          <path d="M65.33,77.474a.846.846,0,0,0,1.691,0v-3.42a9.25,9.25,0,0,0,8.415-8.416h3.42a.846.846,0,1,0,0-1.691h-3.42a9.251,9.251,0,0,0-8.415-8.415v-3.42a.846.846,0,0,0-1.691,0v3.42a9.252,9.252,0,0,0-8.416,8.415h-3.42a.846.846,0,0,0,0,1.691h3.42a9.251,9.251,0,0,0,8.416,8.416ZM58.567,64.793A7.609,7.609,0,1,1,66.175,72.4,7.617,7.617,0,0,1,58.567,64.793Z" fill="#fff" fill-rule="evenodd"/>
        </g>
      </g>
    </g>
  </g>
</svg>
