<svg xmlns="http://www.w3.org/2000/svg" width="100" height="100" viewBox="0 0 100 100">
  <g>
    <rect width="100" height="100" fill="none"/>
    <g>
      <g>
        <g>
          <rect x="10.465" y="30.969" width="58.458" height="38.062" rx="4" transform="translate(-10.328 89.667) rotate(-89.969)" fill="#bed1f8"/>
          <path d="M30.655,26.681H48.3a4,4,0,0,1,4,4V66.868a0,0,0,0,1,0,0H26.655a0,0,0,0,1,0,0V30.681a4,4,0,0,1,4-4Z" fill="#fff"/>
          <path d="M20.676,66.16H58.735a0,0,0,0,1,0,0v9.076a4,4,0,0,1-4,4H24.676a4,4,0,0,1-4-4V66.16A0,0,0,0,1,20.676,66.16Z" fill="#031e55"/>
          <circle cx="39.706" cy="72.816" r="3.24" fill="#91b0f2"/>
        </g>
        <rect x="30.35" y="31.46" width="18.558" height="7.442" rx="1" fill="#f0f5fe"/>
        <rect x="30.35" y="43.326" width="18.558" height="7.442" rx="1" fill="#f0f5fe"/>
        <rect x="30.35" y="55.192" width="18.558" height="7.442" rx="1" fill="#f0f5fe"/>
      </g>
      <g>
        <circle cx="69.01" cy="69.576" r="21" fill="#ff870a"/>
        <g>
          <path d="M64.783,69.576a4.227,4.227,0,1,0,4.227-4.227A4.231,4.231,0,0,0,64.783,69.576Zm1.691,0a2.536,2.536,0,1,1,2.536,2.536A2.538,2.538,0,0,1,66.474,69.576Z" fill="#fff" fill-rule="evenodd"/>
          <path d="M68.165,82.257a.845.845,0,0,0,1.69,0v-3.42a9.25,9.25,0,0,0,8.416-8.416h3.42a.845.845,0,0,0,0-1.69h-3.42a9.252,9.252,0,0,0-8.416-8.416V56.9a.845.845,0,0,0-1.69,0v3.42a9.252,9.252,0,0,0-8.416,8.416h-3.42a.845.845,0,1,0,0,1.69h3.42a9.25,9.25,0,0,0,8.416,8.416ZM61.4,69.576a7.609,7.609,0,1,1,7.609,7.609A7.618,7.618,0,0,1,61.4,69.576Z" fill="#fff" fill-rule="evenodd"/>
        </g>
      </g>
    </g>
  </g>
</svg>
